<svg height="1454" width="720" xmlns="http://www.w3.org/2000/svg">
<rect height="1454" fill="#555" width="720"></rect>
<text fill="#7f7" font-family="Courier New" font-size="12" xml:space="preserve">
<tspan x="10" y="26">13 megabytes installed</tspan>
<tspan x="10" y="42"></tspan>
<tspan x="10" y="58">node_modules</tspan>
<tspan x="10" y="74">└─┬ oidc-provider@1.15.6 </tspan>
<tspan x="10" y="90">  ├── base64url@2.0.0 </tspan>
<tspan x="10" y="106">  ├── buffer-equals-constant@1.0.0 </tspan>
<tspan x="10" y="122">  ├─┬ debug@2.6.4 </tspan>
<tspan x="10" y="138">  │ └── ms@0.7.3 </tspan>
<tspan x="10" y="154">  ├── ejs@2.5.6 </tspan>
<tspan x="10" y="170">  ├─┬ got@6.7.1 </tspan>
<tspan x="10" y="186">  │ ├─┬ create-error-class@3.0.2 </tspan>
<tspan x="10" y="202">  │ │ └── capture-stack-trace@1.0.0 </tspan>
<tspan x="10" y="218">  │ ├── duplexer3@0.1.4 </tspan>
<tspan x="10" y="234">  │ ├── get-stream@3.0.0 </tspan>
<tspan x="10" y="250">  │ ├── is-redirect@1.0.0 </tspan>
<tspan x="10" y="266">  │ ├── is-retry-allowed@1.1.0 </tspan>
<tspan x="10" y="282">  │ ├── is-stream@1.1.0 </tspan>
<tspan x="10" y="298">  │ ├── lowercase-keys@1.0.0 </tspan>
<tspan x="10" y="314">  │ ├── safe-buffer@5.0.1 </tspan>
<tspan x="10" y="330">  │ ├── timed-out@4.0.1 </tspan>
<tspan x="10" y="346">  │ ├── unzip-response@2.0.1 </tspan>
<tspan x="10" y="362">  │ └─┬ url-parse-lax@1.0.0 </tspan>
<tspan x="10" y="378">  │   └── prepend-http@1.0.4 </tspan>
<tspan x="10" y="394">  ├─┬ http-errors@1.6.1 </tspan>
<tspan x="10" y="410">  │ ├── depd@1.1.0 </tspan>
<tspan x="10" y="426">  │ ├── inherits@2.0.3 </tspan>
<tspan x="10" y="442">  │ ├── setprototypeof@1.0.3 </tspan>
<tspan x="10" y="458">  │ └── statuses@1.3.1 </tspan>
<tspan x="10" y="474">  ├─┬ kcors@1.3.2 </tspan>
<tspan x="10" y="490">  │ └── copy-to@2.0.1 </tspan>
<tspan x="10" y="506">  ├─┬ koa@1.4.0 </tspan>
<tspan x="10" y="522">  │ ├─┬ accepts@1.3.3 </tspan>
<tspan x="10" y="538">  │ │ └── negotiator@0.6.1 </tspan>
<tspan x="10" y="554">  │ ├── co@4.6.0 </tspan>
<tspan x="10" y="570">  │ ├─┬ composition@2.3.0 </tspan>
<tspan x="10" y="586">  │ │ └── any-promise@1.3.0 </tspan>
<tspan x="10" y="602">  │ ├── content-disposition@0.5.2 </tspan>
<tspan x="10" y="618">  │ ├── content-type@1.0.2 </tspan>
<tspan x="10" y="634">  │ ├─┬ cookies@0.7.0 </tspan>
<tspan x="10" y="650">  │ │ └── keygrip@1.0.1 </tspan>
<tspan x="10" y="666">  │ ├── delegates@1.0.0 </tspan>
<tspan x="10" y="682">  │ ├── destroy@1.0.4 </tspan>
<tspan x="10" y="698">  │ ├── error-inject@1.0.0 </tspan>
<tspan x="10" y="714">  │ ├── escape-html@1.0.3 </tspan>
<tspan x="10" y="730">  │ ├── fresh@0.3.0 </tspan>
<tspan x="10" y="746">  │ ├─┬ http-assert@1.2.0 </tspan>
<tspan x="10" y="762">  │ │ ├── deep-equal@1.0.1 </tspan>
<tspan x="10" y="778">  │ │ └─┬ http-errors@1.4.0 </tspan>
<tspan x="10" y="794">  │ │   └── inherits@2.0.1 </tspan>
<tspan x="10" y="810">  │ ├── koa-is-json@1.0.0 </tspan>
<tspan x="10" y="826">  │ ├─┬ mime-types@2.1.15 </tspan>
<tspan x="10" y="842">  │ │ └── mime-db@1.27.0 </tspan>
<tspan x="10" y="858">  │ ├─┬ on-finished@2.3.0 </tspan>
<tspan x="10" y="874">  │ │ └── ee-first@1.1.1 </tspan>
<tspan x="10" y="890">  │ ├── only@0.0.2 </tspan>
<tspan x="10" y="906">  │ ├── parseurl@1.3.1 </tspan>
<tspan x="10" y="922">  │ ├─┬ type-is@1.6.15 </tspan>
<tspan x="10" y="938">  │ │ └── media-typer@0.3.0 </tspan>
<tspan x="10" y="954">  │ └── vary@1.1.1 </tspan>
<tspan x="10" y="970">  ├── koa-compose@2.5.1 </tspan>
<tspan x="10" y="986">  ├─┬ koa-router@5.4.1 </tspan>
<tspan x="10" y="1002">  │ ├── methods@1.1.2 </tspan>
<tspan x="10" y="1018">  │ └─┬ path-to-regexp@1.7.0 </tspan>
<tspan x="10" y="1034">  │   └── isarray@0.0.1 </tspan>
<tspan x="10" y="1050">  ├── lodash@4.17.4 </tspan>
<tspan x="10" y="1066">  ├─┬ lru-cache@4.0.2 </tspan>
<tspan x="10" y="1082">  │ ├── pseudomap@1.0.2 </tspan>
<tspan x="10" y="1098">  │ └── yallist@2.1.2 </tspan>
<tspan x="10" y="1114">  ├─┬ node-jose@0.9.4 </tspan>
<tspan x="10" y="1130">  │ ├── es6-promise@4.1.0 </tspan>
<tspan x="10" y="1146">  │ ├── lodash.assign@4.2.0 </tspan>
<tspan x="10" y="1162">  │ ├── lodash.clone@4.5.0 </tspan>
<tspan x="10" y="1178">  │ ├── lodash.fill@3.4.0 </tspan>
<tspan x="10" y="1194">  │ ├── lodash.flatten@4.4.0 </tspan>
<tspan x="10" y="1210">  │ ├── lodash.intersection@4.4.0 </tspan>
<tspan x="10" y="1226">  │ ├── lodash.merge@4.6.0 </tspan>
<tspan x="10" y="1242">  │ ├── lodash.omit@4.5.0 </tspan>
<tspan x="10" y="1258">  │ ├── lodash.partialright@4.2.1 </tspan>
<tspan x="10" y="1274">  │ ├── lodash.pick@4.4.0 </tspan>
<tspan x="10" y="1290">  │ ├── lodash.uniq@4.5.0 </tspan>
<tspan x="10" y="1306">  │ ├── long@3.2.0 </tspan>
<tspan x="10" y="1322">  │ └── node-forge@0.7.1 </tspan>
<tspan x="10" y="1338">  ├── oidc-token-hash@1.0.1 </tspan>
<tspan x="10" y="1354">  ├─┬ raw-body@2.2.0 </tspan>
<tspan x="10" y="1370">  │ ├── bytes@2.4.0 </tspan>
<tspan x="10" y="1386">  │ ├── iconv-lite@0.4.15 </tspan>
<tspan x="10" y="1402">  │ └── unpipe@1.0.0 </tspan>
<tspan x="10" y="1418">  ├── uuid@3.0.1 </tspan>
<tspan x="10" y="1434">  └── valid-url@1.0.9</tspan>
</text>
</svg>
